<svg xmlns="http://www.w3.org/2000/svg" xmlns:xlink="http://www.w3.org/1999/xlink" width="500" zoomAndPan="magnify" viewBox="0 0 375 374.999991" height="500" preserveAspectRatio="xMidYMid meet" version="1.0"><defs><clipPath id="b0ecab749d"><path d="M 0 7.265625 L 375 7.265625 L 375 363 L 0 363 Z M 0 7.265625 " clip-rule="nonzero"/></clipPath></defs><path fill="#ccffbb" d="M 87.191406 91.222656 C 83.117188 94.039062 79.25 97.117188 75.59375 100.457031 C 71.933594 103.792969 68.519531 107.363281 65.34375 111.167969 C 62.167969 114.96875 59.265625 118.964844 56.632812 123.160156 C 53.996094 127.355469 51.660156 131.710938 49.613281 136.222656 C 43.160156 150.523438 39.871094 166.066406 37.316406 181.527344 C 34.257812 200.160156 32.210938 219.355469 36.117188 237.828125 C 39.054688 251.730469 45.292969 264.742188 52.417969 277.023438 C 59.425781 289.0625 67.949219 301.0625 80.5 307.085938 C 92.832031 313.007812 107.207031 312.289062 120.828125 310.949219 C 157.617188 307.328125 194.320312 300.058594 231.214844 302.21875 C 239.40625 302.699219 247.597656 303.648438 255.785156 303.328125 C 262.140625 302.941406 268.449219 302.175781 274.710938 301.03125 C 283.652344 299.601562 292.972656 298.015625 300.28125 292.667969 C 303.691406 290.164062 306.5 286.949219 309.273438 283.765625 C 321.082031 270.25 333.277344 255.988281 337.398438 238.515625 C 339.167969 231.046875 339.355469 223.308594 339.539062 215.632812 C 339.96875 197.839844 340.34375 179.667969 335 162.691406 C 331.089844 150.289062 324.765625 128.140625 317.539062 117.328125 C 309.734375 105.6875 299.539062 100.933594 288.875 91.75 C 268.640625 74.417969 242.910156 70.707031 216.3125 69.285156 C 189.71875 67.859375 163.199219 72.453125 137.085938 77.664062 " fill-opacity="1" fill-rule="nonzero"/><path fill="#ccffbb" d="M 241.171875 146.796875 C 241.171875 147.347656 241.097656 147.90625 241.066406 148.457031 L 241.027344 148.457031 Z M 241.171875 146.796875 " fill-opacity="1" fill-rule="nonzero"/><path fill="#ffc089" d="M 236.714844 116.859375 C 236.660156 116.171875 235.007812 114 234.304688 113.761719 C 224.886719 110.585938 214.628906 111.558594 204.734375 112.558594 C 195.101562 113.539062 161.09375 114.59375 158.359375 114.167969 C 153.425781 113.402344 148.65625 113.507812 143.722656 112.734375 L 140.902344 112.734375 C 140.644531 119.050781 140.390625 125.367188 140.136719 131.683594 C 139.984375 135.28125 139.835938 138.878906 139.976562 142.480469 C 140.425781 154.726562 139.683594 167.015625 145.058594 178.042969 C 146.933594 181.871094 151.890625 186.148438 155.167969 188.863281 C 157.1875 190.539062 167.128906 196.519531 169.660156 197.75 C 172.542969 199.1875 176.976562 198.820312 180.128906 199.472656 C 180.703125 199.660156 181.261719 199.613281 181.796875 199.328125 C 181.972656 199.203125 187.011719 200.390625 189.488281 200.273438 C 194.074219 200.078125 198.585938 199.378906 203.015625 198.179688 C 207.449219 196.980469 211.695312 195.308594 215.753906 193.164062 C 218.324219 191.875 220.652344 190.242188 222.734375 188.261719 C 225.128906 185.859375 233.488281 169.089844 235.078125 163.359375 C 239.253906 148.328125 237.96875 132.402344 236.714844 116.859375 Z M 205.4375 174.324219 C 203.558594 177.386719 200.148438 179.128906 196.777344 180.355469 C 192.230469 182.007812 187.542969 182.988281 182.714844 183.285156 C 182.765625 183.953125 181.046875 183.035156 180.464844 182.726562 C 175.496094 180.101562 170.785156 178.425781 168.574219 173.261719 C 167.351562 170.390625 167.582031 166.375 170.347656 164.964844 C 171.523438 164.464844 172.746094 164.25 174.019531 164.324219 L 198.136719 163.816406 C 200.109375 163.773438 202.195312 163.765625 203.894531 164.773438 C 206.96875 166.617188 207.320312 171.269531 205.4375 174.324219 Z M 205.4375 174.324219 " fill-opacity="1" fill-rule="nonzero"/><path fill="#ffc089" d="M 226.125 202.824219 C 223.746094 199.25 221.4375 197.039062 220.769531 192.53125 C 220.578125 191.296875 218.914062 191.09375 218.140625 191.835938 C 211.082031 198.585938 197.640625 200.0625 188.355469 200.097656 C 183.269531 200.109375 178.246094 199.546875 173.285156 198.410156 C 168.324219 197.277344 163.554688 195.601562 158.976562 193.378906 C 159.015625 191.574219 156.226562 190.871094 155.917969 192.785156 C 155.339844 196.5625 153.828125 199.921875 151.382812 202.863281 C 150.269531 204.277344 149.035156 205.515625 148.851562 207.40625 C 148.472656 211.316406 153.058594 215.511719 155.535156 217.992188 C 163.503906 225.949219 177.300781 228.269531 188.105469 228.75 C 199.277344 229.25 210.464844 226.035156 218.203125 217.648438 C 219.992188 215.710938 221.558594 213.582031 223.148438 211.488281 C 224.441406 209.789062 226.972656 207.515625 226.972656 205.164062 C 226.96875 204.285156 226.6875 203.503906 226.125 202.824219 Z M 226.125 202.824219 " fill-opacity="1" fill-rule="nonzero"/><path fill="#52993a" d="M 142.980469 198.277344 C 135.992188 201.339844 128.269531 203.023438 121.277344 206.113281 C 116.515625 208.210938 112.460938 211.761719 108.210938 214.769531 C 101.054688 219.828125 93.851562 225.375 89.445312 232.953125 C 78.371094 252.023438 72.675781 275.492188 71.484375 297.511719 C 71.382812 299.269531 70.71875 301.078125 71.222656 302.753906 C 71.914062 304.695312 72.875 306.496094 74.097656 308.15625 C 75.324219 309.8125 76.765625 311.257812 78.417969 312.488281 C 83.625 316.445312 89.398438 321.992188 94.476562 326.109375 C 97.683594 328.832031 101.082031 331.28125 104.679688 333.464844 C 127.207031 346.390625 152.257812 357.433594 178.171875 359.039062 C 196.851562 360.195312 215.3125 355.257812 233.371094 350.359375 C 229.640625 348.371094 225.617188 346.050781 224.160156 342.089844 C 223.542969 340.035156 223.332031 337.941406 223.523438 335.804688 C 223.964844 322.867188 225.976562 310.175781 229.558594 297.734375 C 230.589844 294.144531 231.746094 290.25 230.359375 286.773438 C 229.398438 284.347656 227.261719 282.417969 226.773438 279.886719 C 226.007812 275.90625 229.457031 272.234375 229.503906 268.179688 C 229.503906 265.117188 227.667969 261.886719 229.167969 259.230469 C 230.277344 257.257812 232.777344 256.589844 234.4375 255.046875 C 235.539062 253.875 236.375 252.535156 236.945312 251.027344 C 243.941406 235.433594 250.707031 219.070312 252.773438 202.105469 C 247.566406 200.128906 240.195312 198.085938 234.839844 196.5625 C 234.128906 196.269531 233.414062 196.269531 232.699219 196.5625 C 232.035156 197.085938 231.660156 197.765625 231.574219 198.605469 C 227.707031 214.179688 212.65625 222.765625 197.824219 228.859375 C 192.300781 231.152344 174.972656 229.386719 172.152344 227.441406 C 166.347656 223.449219 159.621094 220.96875 153.800781 217.003906 C 147.980469 213.039062 142.890625 206.886719 143.042969 199.839844 " fill-opacity="1" fill-rule="nonzero"/><path fill="#52993a" d="M 269.785156 209.398438 C 266.3125 218.238281 263.410156 227.261719 261.085938 236.472656 C 260.609375 238.339844 260.167969 240.300781 260.550781 242.175781 C 261.3125 245.945312 265.046875 248.210938 267.628906 251.058594 C 271.8125 255.652344 273.136719 262.109375 274.796875 268.117188 C 275.421875 270.367188 276.148438 272.707031 277.707031 274.398438 C 278.90625 275.597656 280.257812 276.59375 281.753906 277.382812 C 291.195312 283.082031 299.882812 289.757812 307.820312 297.410156 C 311.574219 293.132812 314.800781 288.488281 317.496094 283.476562 C 318.195312 282.398438 318.5625 281.21875 318.597656 279.933594 C 318.496094 278.195312 317.179688 276.800781 316.035156 275.492188 C 313.34375 272.414062 311.207031 268.992188 309.621094 265.222656 C 308.039062 261.453125 307.085938 257.53125 306.765625 253.453125 C 306.566406 250.804688 306.636719 248.097656 305.78125 245.578125 C 304.890625 243.351562 303.644531 241.34375 302.046875 239.558594 C 292.886719 228.191406 282.230469 218.464844 270.085938 210.371094 " fill-opacity="1" fill-rule="nonzero"/><path fill="#ffc089" d="M 277.898438 277.414062 C 274.605469 273.980469 272.15625 270.988281 270.75 266.792969 C 271.796875 255.789062 264.34375 244.339844 252.902344 242.71875 C 248.316406 242.074219 242.910156 243.328125 239.902344 247.070312 C 237.753906 249.757812 238.152344 253.859375 235.84375 256.203125 C 234.121094 257.953125 231.53125 258.671875 230.304688 260.953125 C 229.242188 262.9375 229.601562 264.78125 230.046875 266.882812 C 230.535156 269.179688 230.863281 270.039062 230.136719 272.316406 C 229.734375 273.605469 229.152344 274.75 228.738281 276.007812 C 228.261719 277.15625 227.972656 278.355469 227.867188 279.597656 C 227.78125 285.773438 233.011719 285.648438 237.601562 284.953125 C 239.9375 284.578125 242.265625 284.621094 244.585938 285.085938 C 246.90625 285.554688 249.074219 286.410156 251.082031 287.660156 C 255.027344 290.117188 256.824219 293.898438 259.496094 297.480469 C 262.164062 301.0625 266.285156 303.601562 270.84375 301.398438 C 276.148438 298.796875 280.402344 290.609375 280.78125 284.921875 C 280.894531 283.515625 280.699219 282.15625 280.191406 280.839844 C 279.6875 279.527344 278.921875 278.382812 277.898438 277.414062 Z M 277.898438 277.414062 " fill-opacity="1" fill-rule="nonzero"/><path fill="#6b503b" d="M 236.4375 288.679688 C 233.328125 291.226562 233.019531 295.757812 232.242188 299.699219 C 230.941406 306.25 227.738281 312.242188 225.296875 318.464844 C 222.859375 324.6875 221.167969 331.597656 223.042969 338.007812 C 223.960938 341.148438 225.949219 344.222656 229.023438 345.332031 C 230.621094 345.820312 232.253906 346 233.921875 345.875 C 237.96875 345.785156 242.175781 345.371094 245.601562 343.226562 C 249.027344 341.085938 251.382812 336.730469 250.042969 332.914062 C 248.804688 329.363281 244.949219 327.378906 243.160156 324.066406 C 241.484375 320.964844 241.867188 317.179688 242.433594 313.726562 C 243.648438 306.257812 245.5 298.949219 247.992188 291.800781 C 248.359375 290.746094 248.757812 289.589844 248.382812 288.535156 C 247.832031 286.902344 245.859375 286.316406 244.15625 286.109375 C 241.605469 285.789062 239.058594 285.789062 236.507812 286.109375 " fill-opacity="1" fill-rule="nonzero"/><path fill="#6b503b" d="M 258.292969 244.132812 C 266.175781 222.597656 272.476562 200.609375 277.203125 178.167969 C 277.59375 176.308594 277.96875 174.339844 277.320312 172.558594 C 276.210938 169.496094 272.660156 168.210938 269.535156 167.308594 C 268.683594 166.945312 267.824219 166.921875 266.957031 167.238281 C 266.402344 167.59375 265.988281 168.070312 265.710938 168.667969 C 259.273438 179.84375 256.105469 192.554688 253.015625 205.082031 L 246.625 231.03125 C 245.800781 234.382812 245.308594 238.683594 248.152344 240.589844 C 250.640625 242.25 254.371094 241.011719 256.695312 242.886719 " fill-opacity="1" fill-rule="nonzero"/><path fill="#6b503b" d="M 267.746094 146.164062 L 262.820312 156.738281 C 262.308594 157.839844 259.761719 161.941406 260.464844 162.914062 C 260.734375 163.28125 263.746094 164.351562 264.136719 164.582031 C 269.40625 167.574219 274.421875 166.535156 280.132812 168.539062 C 282.488281 169.359375 285.554688 169.902344 287.078125 167.925781 C 287.554688 167.199219 287.867188 166.40625 288.007812 165.546875 C 289 161.464844 289.960938 157.371094 290.898438 153.265625 C 291.21875 152.324219 291.238281 151.378906 290.953125 150.425781 C 290.566406 149.699219 290.023438 149.125 289.316406 148.703125 C 286.5 146.722656 283.453125 145.203125 280.175781 144.148438 C 276.894531 143.089844 273.535156 142.542969 270.09375 142.503906 " fill-opacity="1" fill-rule="nonzero"/><path fill="#ffc035" d="M 67.109375 157.007812 C 59.53125 157.007812 51.730469 161.484375 44.828125 164.183594 C 42.425781 165.125 39.328125 165.875 37.09375 167.40625 C 37.601562 161.09375 37.699219 154.742188 36.445312 148.519531 C 35.261719 142.664062 32.714844 134.523438 26.421875 132.449219 C 26.21875 132.394531 26.015625 132.378906 25.808594 132.40625 C 25.601562 132.429688 25.40625 132.496094 25.226562 132.597656 C 25.042969 132.703125 24.890625 132.835938 24.761719 133 C 24.632812 133.167969 24.542969 133.351562 24.484375 133.550781 C 22.4375 146.230469 20.546875 161.5 30.441406 171.609375 C 31.328125 172.507812 32.28125 173.324219 33.304688 174.058594 C 33.304688 174.171875 33.304688 174.277344 33.304688 174.386719 C 33.140625 175.847656 34.761719 176.238281 35.742188 175.570312 C 36.703125 176.074219 37.695312 176.507812 38.714844 176.875 C 39.734375 177.242188 40.773438 177.539062 41.835938 177.765625 C 42.894531 177.988281 43.96875 178.140625 45.046875 178.222656 C 46.128906 178.300781 47.210938 178.308594 48.292969 178.242188 C 49.375 178.175781 50.449219 178.035156 51.511719 177.820312 C 52.574219 177.609375 53.617188 177.324219 54.640625 176.96875 C 55.667969 176.613281 56.664062 176.191406 57.628906 175.703125 C 58.597656 175.210938 59.527344 174.660156 60.417969 174.042969 C 62.957031 172.246094 65.355469 170.277344 67.613281 168.132812 C 69.355469 166.542969 72.804688 163.902344 73.410156 161.398438 C 74.328125 157.65625 69.984375 157 67.109375 157.007812 Z M 67.109375 157.007812 " fill-opacity="1" fill-rule="nonzero"/><path fill="#ffc035" d="M 60.5625 199.195312 C 59.988281 192.308594 52.480469 197.828125 49.621094 199.960938 C 46.394531 202.402344 43.507812 205.191406 40.957031 208.332031 C 38.40625 211.46875 36.269531 214.867188 34.542969 218.527344 C 32.667969 216.921875 30.542969 215.75 28.699219 213.988281 C 26.40625 211.769531 24.832031 208.898438 22.398438 206.742188 C 17.964844 202.800781 12.257812 200.65625 6.800781 198.585938 C 5.5 198.085938 4.3125 199.792969 5.015625 200.878906 C 12.082031 212.015625 19.738281 230.449219 35.292969 230.410156 C 35.636719 230.425781 35.949219 230.328125 36.226562 230.113281 C 36.5 229.902344 36.675781 229.625 36.75 229.285156 C 49.308594 225.675781 61.6875 212.988281 60.5625 199.195312 Z M 60.5625 199.195312 " fill-opacity="1" fill-rule="nonzero"/><path fill="#ffc035" d="M 62.597656 239.042969 C 61 239.96875 59.308594 242.992188 58.332031 244.445312 C 56.375 247.363281 54.679688 250.421875 53.253906 253.628906 C 51.011719 258.71875 49.480469 264.015625 48.664062 269.515625 C 46.703125 267.570312 44.597656 265.792969 42.351562 264.1875 C 40.101562 262.582031 37.738281 261.167969 35.257812 259.945312 C 32.78125 258.722656 30.222656 257.707031 27.578125 256.902344 C 24.9375 256.097656 22.246094 255.507812 19.507812 255.136719 C 19.25 255.109375 19 255.136719 18.753906 255.21875 C 18.511719 255.296875 18.292969 255.425781 18.101562 255.601562 C 17.914062 255.777344 17.769531 255.984375 17.667969 256.222656 C 17.566406 256.460938 17.519531 256.707031 17.527344 256.964844 C 16.410156 256.070312 14.347656 256.890625 14.996094 258.496094 C 19.585938 269.625 29.210938 277.714844 41.308594 279.242188 C 46.546875 279.925781 53.734375 279.734375 58.238281 276.582031 C 62.742188 273.429688 65.25 267 66.832031 262.039062 C 67.890625 258.703125 71.804688 233.710938 62.597656 239.042969 Z M 62.597656 239.042969 " fill-opacity="1" fill-rule="nonzero"/><path fill="#ffc035" d="M 123.3125 162.824219 C 123.203125 162.644531 123.066406 162.496094 122.898438 162.371094 C 122.734375 162.246094 122.550781 162.160156 122.347656 162.105469 C 122.148438 162.054688 121.945312 162.039062 121.738281 162.066406 C 121.53125 162.09375 121.339844 162.15625 121.15625 162.257812 C 116.8125 165.003906 114.894531 169.359375 113.585938 174.195312 C 111.628906 181.480469 110.03125 188.894531 108.316406 196.257812 C 103.53125 192.597656 100.082031 187.167969 94.386719 184.777344 C 87.65625 181.96875 78.832031 182.320312 71.683594 181.550781 C 70.230469 181.394531 69.738281 183.324219 70.566406 184.242188 C 76.046875 190.289062 81.203125 197.445312 88.972656 200.628906 C 96.074219 203.542969 103.875 203.265625 111.285156 201.828125 C 111.554688 201.828125 111.8125 201.761719 112.050781 201.628906 C 118.71875 197.964844 122.753906 191.582031 124.535156 184.304688 C 126.15625 177.769531 127.6875 168.578125 123.3125 162.824219 Z M 123.3125 162.824219 " fill-opacity="1" fill-rule="nonzero"/><path fill="#ffc035" d="M 359.988281 259.347656 C 357 254.265625 347.714844 257.816406 343.824219 259.253906 C 337.367188 261.605469 331.550781 265.042969 326.378906 269.570312 C 326.328125 266.417969 325.929688 263.3125 325.179688 260.25 C 324.433594 257.1875 323.351562 254.246094 321.945312 251.429688 C 320.535156 248.609375 318.832031 245.980469 316.832031 243.542969 C 314.832031 241.109375 312.589844 238.925781 310.101562 236.992188 C 309.296875 236.375 307.644531 236.367188 307.460938 237.691406 C 305.3125 253.277344 308.914062 269.523438 322.617188 278.738281 C 322.765625 278.847656 322.925781 278.925781 323.105469 278.96875 C 323.28125 279.011719 323.460938 279.019531 323.640625 278.988281 C 323.820312 278.957031 323.988281 278.894531 324.144531 278.796875 C 324.296875 278.699219 324.425781 278.574219 324.53125 278.425781 C 324.667969 278.628906 324.851562 278.785156 325.078125 278.886719 C 325.300781 278.992188 325.539062 279.027344 325.785156 279 C 330.042969 278.726562 334.21875 277.984375 338.3125 276.773438 C 342.40625 275.558594 346.3125 273.90625 350.03125 271.8125 C 353.496094 269.855469 363.199219 264.832031 359.988281 259.347656 Z M 359.988281 259.347656 " fill-opacity="1" fill-rule="nonzero"/><path fill="#ffc035" d="M 373.019531 199.769531 C 373.011719 199.5625 372.96875 199.363281 372.886719 199.171875 C 372.804688 198.984375 372.691406 198.816406 372.542969 198.667969 C 372.398438 198.523438 372.230469 198.40625 372.039062 198.324219 C 371.847656 198.242188 371.648438 198.199219 371.441406 198.195312 C 365.195312 197.429688 357.527344 204.613281 352.875 208.074219 C 347.726562 211.789062 343.253906 216.199219 339.464844 221.296875 C 336.339844 214.089844 331.949219 207.765625 326.289062 202.328125 C 323.453125 199.625 314.054688 190.578125 312.671875 199.035156 C 311.414062 206.734375 316.667969 215.273438 321.082031 221.039062 C 326.234375 227.773438 332.613281 232.085938 341.214844 229.890625 C 341.617188 230.273438 342.085938 230.394531 342.621094 230.25 C 350.382812 228.460938 358.03125 226.347656 363.644531 220.300781 C 368.726562 214.867188 373.371094 207.476562 373.019531 199.769531 Z M 373.019531 199.769531 " fill-opacity="1" fill-rule="nonzero"/><path fill="#ffc035" d="M 352.585938 138.265625 C 349.015625 131.539062 343.753906 138.863281 341.726562 142.804688 C 339.988281 146.203125 338.929688 149.800781 338.546875 153.601562 C 338.074219 158.292969 339.113281 162.945312 338.433594 167.558594 C 335.953125 165.703125 333.320312 164.105469 330.53125 162.765625 C 327.746094 161.421875 324.851562 160.363281 321.859375 159.585938 C 318.863281 158.808594 315.820312 158.324219 312.734375 158.140625 C 309.644531 157.953125 306.566406 158.070312 303.5 158.484375 C 302.476562 158.621094 301.328125 159.777344 302.140625 160.855469 C 303.101562 162.148438 304.132812 163.375 305.242188 164.542969 C 306.347656 165.714844 307.515625 166.8125 308.753906 167.84375 C 309.988281 168.871094 311.28125 169.828125 312.628906 170.703125 C 313.976562 171.582031 315.371094 172.375 316.816406 173.085938 C 318.257812 173.800781 319.734375 174.425781 321.25 174.960938 C 322.769531 175.5 324.308594 175.945312 325.878906 176.300781 C 327.449219 176.65625 329.03125 176.917969 330.628906 177.082031 C 332.230469 177.25 333.835938 177.324219 335.441406 177.300781 C 335.679688 177.480469 335.949219 177.578125 336.246094 177.601562 C 336.542969 177.621094 336.824219 177.558594 337.085938 177.417969 L 337.46875 177.21875 L 337.8125 177.21875 C 338.105469 177.207031 338.371094 177.117188 338.613281 176.949219 C 338.855469 176.785156 339.035156 176.566406 339.152344 176.300781 C 342.054688 174.609375 344.625 172.507812 346.859375 170 C 349.09375 167.488281 350.882812 164.695312 352.226562 161.613281 C 355.125 154.847656 356.15625 145 352.585938 138.265625 Z M 352.585938 138.265625 " fill-opacity="1" fill-rule="nonzero"/><path fill="#ffc035" d="M 293.363281 105.242188 C 285.714844 89.050781 272.242188 77.195312 258.804688 65.824219 C 251.535156 59.703125 244.4375 53.417969 237.59375 46.785156 C 230.75 40.148438 222.988281 34.746094 214.882812 29.519531 L 201.265625 20.757812 C 197.105469 18.078125 192.402344 13.816406 187.621094 12.414062 C 184.527344 11.511719 181.878906 13.089844 179.210938 14.542969 C 174.746094 17 170.371094 19.640625 166.089844 22.402344 C 149.480469 33.089844 134.441406 45.660156 120.972656 60.109375 C 113.136719 68.527344 106.582031 78.597656 97.558594 85.820312 C 91.707031 90.496094 84.558594 94.292969 81.921875 101.515625 C 81.027344 101.363281 80.085938 101.847656 80.238281 102.984375 C 81.058594 109.167969 91.488281 109.109375 96.121094 109.8125 C 104.679688 110.960938 113.277344 111.488281 121.914062 111.390625 C 141.03125 111.390625 160.0625 110.316406 179.210938 111.59375 C 198.359375 112.875 217.519531 115.191406 236.761719 115.132812 C 245.417969 115.15625 254.03125 114.550781 262.597656 113.316406 C 272.347656 111.863281 282.058594 107.699219 291.933594 107.617188 C 292.21875 107.625 292.488281 107.558594 292.738281 107.421875 C 292.988281 107.285156 293.191406 107.09375 293.339844 106.847656 C 293.484375 106.601562 293.5625 106.335938 293.566406 106.046875 C 293.570312 105.761719 293.503906 105.492188 293.363281 105.242188 Z M 293.363281 105.242188 " fill-opacity="1" fill-rule="nonzero"/><path fill="#6b503b" d="M 265.886719 147.664062 C 262.242188 146 258.453125 144.8125 254.511719 144.101562 C 250.570312 143.386719 246.605469 143.167969 242.609375 143.445312 C 241.582031 143.433594 240.628906 143.6875 239.742188 144.210938 C 238.457031 145.144531 238.175781 146.914062 238 148.496094 C 236.980469 157.492188 235.980469 166.480469 235 175.464844 C 234.3125 181.695312 231.582031 190.65625 236.21875 194.871094 C 238.816406 197.238281 244.828125 196.347656 248.222656 197.289062 C 254.660156 199.085938 260.796875 201.613281 266.632812 204.871094 C 272.46875 208.128906 277.839844 212.027344 282.75 216.566406 C 284.324219 218.03125 286.496094 219.675781 288.40625 218.671875 C 289.175781 218.175781 289.773438 217.523438 290.1875 216.707031 C 297.699219 204.585938 303.703125 191.761719 308.195312 178.226562 C 308.765625 176.875 309.019531 175.46875 308.960938 174.003906 C 308.769531 172.328125 307.777344 170.875 306.8125 169.496094 C 301.390625 161.757812 294.28125 153.140625 284.859375 153.699219 " fill-opacity="1" fill-rule="nonzero"/><path fill="#52993a" d="M 285.5 281.386719 C 284.757812 283.792969 283.796875 286.113281 282.625 288.34375 C 281.449219 290.570312 280.082031 292.675781 278.519531 294.648438 C 276.957031 296.625 275.226562 298.441406 273.328125 300.097656 C 271.429688 301.753906 269.394531 303.21875 267.226562 304.496094 C 265.65625 305.417969 263.875 306.410156 263.402344 308.15625 C 262.929688 309.902344 264.035156 311.84375 265.128906 313.40625 C 271.195312 322.054688 277.480469 330.617188 285.011719 337.992188 C 292.542969 345.371094 301.5 351.570312 311.585938 354.691406 C 315.347656 355.863281 319.351562 356.597656 323.222656 355.847656 C 330.722656 354.386719 336.269531 347.429688 338.101562 340.015625 C 339.9375 332.597656 338.714844 324.753906 336.910156 317.324219 C 333.933594 305.03125 329.484375 293.296875 323.558594 282.121094 L 316.976562 289.382812 C 314.0625 292.605469 310.175781 296.125 305.996094 294.976562 C 304.820312 294.59375 303.734375 294.035156 302.738281 293.300781 L 287.082031 283.0625 " fill-opacity="1" fill-rule="nonzero"/><path fill="#8c4038" d="M 171.175781 164.140625 C 170.976562 169.984375 169.875 176.070312 174.683594 179.390625 C 179.492188 182.710938 190.0625 183.15625 195.453125 180.921875 C 196.796875 180.339844 198.054688 179.601562 199.21875 178.710938 C 200.382812 177.820312 201.421875 176.800781 202.335938 175.652344 C 203.246094 174.503906 204.007812 173.261719 204.613281 171.925781 C 205.222656 170.589844 205.65625 169.203125 205.921875 167.757812 C 200.085938 167.160156 194.199219 167.84375 188.332031 167.957031 C 182.46875 168.074219 176.390625 167.566406 171.195312 164.835938 " fill-opacity="1" fill-rule="nonzero"/><path fill="#ffffff" d="M 207.816406 168.648438 C 207.328125 164.207031 196.15625 163.984375 193.546875 163.640625 C 184.890625 162.476562 176.335938 162.027344 167.757812 163.957031 C 165.777344 164.398438 166.617188 167.4375 168.589844 167.015625 L 168.949219 166.941406 L 170.027344 168.960938 C 168.988281 169.582031 168.835938 171.460938 170.339844 171.859375 C 178.382812 174.023438 186.539062 174.625 194.808594 173.667969 C 197.441406 173.328125 208.300781 173.023438 207.816406 168.648438 Z M 207.816406 168.648438 " fill-opacity="1" fill-rule="nonzero"/><path fill="#ffc089" d="M 240.859375 128.769531 C 239.222656 128.660156 238.917969 130.6875 239.910156 131.554688 L 239.6875 131.828125 C 239.589844 131.746094 239.484375 131.679688 239.367188 131.625 C 239.253906 131.566406 239.132812 131.527344 239.007812 131.503906 C 238.882812 131.476562 238.757812 131.46875 238.628906 131.476562 C 238.5 131.480469 238.375 131.503906 238.253906 131.542969 C 238.132812 131.582031 238.015625 131.632812 237.90625 131.699219 C 237.796875 131.765625 237.699219 131.847656 237.609375 131.9375 C 237.519531 132.03125 237.445312 132.132812 237.382812 132.242188 C 237.316406 132.355469 237.269531 132.472656 237.234375 132.59375 C 236.574219 135.308594 236.238281 138.058594 236.226562 140.851562 C 236.226562 142.972656 236.226562 147.210938 237.339844 149.101562 C 238.832031 151.621094 241.585938 149.941406 243.359375 148.335938 C 248.078125 143.980469 249.675781 129.351562 240.859375 128.769531 Z M 240.859375 128.769531 " fill-opacity="1" fill-rule="nonzero"/><path fill="#ffc089" d="M 140.1875 136.136719 C 140.152344 135.875 140.058594 135.632812 139.910156 135.414062 C 139.761719 135.191406 139.574219 135.011719 139.34375 134.878906 C 139.117188 134.742188 138.871094 134.660156 138.605469 134.636719 C 138.339844 134.613281 138.082031 134.644531 137.835938 134.738281 L 137.789062 134.660156 C 139.226562 133.757812 138.398438 131.140625 136.609375 131.785156 C 132.6875 133.191406 130.785156 136.542969 129.636719 140.398438 C 128.207031 145.230469 129.636719 149.214844 133.207031 152.738281 C 135.816406 155.316406 138.019531 155.15625 139.675781 151.824219 C 142.132812 146.890625 140.808594 141.296875 140.1875 136.136719 Z M 140.1875 136.136719 " fill-opacity="1" fill-rule="nonzero"/><path fill="#967259" d="M 233.816406 289.148438 C 229.332031 300.375 226.394531 312 225.007812 324.011719 C 223.960938 333.105469 224.351562 344.675781 235.054688 347.4375 C 238.984375 348.457031 240.667969 342.371094 236.738281 341.359375 C 227.027344 338.851562 231.347656 322.230469 232.632812 315.441406 C 234.265625 307.003906 236.6875 298.796875 239.886719 290.824219 C 241.417969 287.050781 235.300781 285.410156 233.816406 289.148438 Z M 233.816406 289.148438 " fill-opacity="1" fill-rule="nonzero"/><path fill="#967259" d="M 251.058594 240.167969 C 258.570312 217.457031 263.59375 194 269.273438 170.75 C 270.230469 166.808594 264.160156 165.132812 263.195312 169.074219 C 257.515625 192.324219 252.488281 215.757812 244.988281 238.492188 C 243.710938 242.359375 249.789062 244.011719 251.058594 240.167969 Z M 251.058594 240.167969 " fill-opacity="1" fill-rule="nonzero"/><path fill="#967259" d="M 267.792969 142.621094 C 264.871094 148.988281 262.558594 155.570312 260.847656 162.363281 C 259.867188 166.304688 265.941406 167.988281 266.925781 164.039062 C 268.46875 157.765625 270.570312 151.6875 273.234375 145.804688 C 274.902344 142.136719 269.472656 138.914062 267.792969 142.621094 Z M 267.792969 142.621094 " fill-opacity="1" fill-rule="nonzero"/><path fill="#447233" d="M 118.328125 336.488281 L 118.328125 321.289062 C 118.328125 312.257812 118.792969 303.097656 116.859375 294.210938 C 116.507812 292.589844 114.296875 292.851562 113.800781 294.210938 C 109.304688 307.019531 105.847656 320.105469 103.429688 333.464844 C 103.101562 335.292969 105.632812 336.148438 106.328125 334.726562 L 114.472656 339.699219 C 114.351562 339.835938 114.261719 339.992188 114.203125 340.167969 C 114.148438 340.339844 114.128906 340.519531 114.148438 340.703125 C 114.164062 340.882812 114.222656 341.054688 114.3125 341.214844 C 114.402344 341.371094 114.523438 341.503906 114.671875 341.613281 L 115.136719 341.996094 C 115.394531 342.242188 115.699219 342.390625 116.054688 342.433594 C 116.40625 342.480469 116.738281 342.414062 117.050781 342.242188 C 119.03125 340.910156 118.328125 338.667969 118.328125 336.488281 Z M 118.328125 336.488281 " fill-opacity="1" fill-rule="nonzero"/><path fill="#447233" d="M 334.234375 347.558594 C 320.09375 353.335938 306.414062 345.265625 296.765625 335.070312 C 287.527344 325.335938 279.796875 314.027344 272.953125 302.515625 C 272.84375 302.339844 272.707031 302.191406 272.539062 302.066406 C 272.371094 301.945312 272.1875 301.855469 271.988281 301.804688 C 271.785156 301.75 271.582031 301.738281 271.378906 301.761719 C 271.171875 301.789062 270.976562 301.851562 270.796875 301.949219 C 267.945312 303.148438 265.238281 304.621094 262.675781 306.359375 C 262.507812 306.46875 262.363281 306.609375 262.246094 306.777344 C 262.132812 306.945312 262.050781 307.128906 262.003906 307.328125 C 261.957031 307.523438 261.949219 307.726562 261.980469 307.925781 C 262.011719 308.128906 262.074219 308.316406 262.179688 308.492188 C 262.179688 308.886719 262.320312 309.226562 262.597656 309.511719 C 273.921875 321.832031 281.875 337.375 295.480469 347.542969 C 307.125 356.269531 323.558594 359.789062 335.753906 350.191406 C 336.980469 349.242188 335.65625 346.96875 334.234375 347.558594 Z M 334.234375 347.558594 " fill-opacity="1" fill-rule="nonzero"/><path fill="#447233" d="M 272.082031 252.460938 C 272.84375 245.335938 275.285156 238.15625 276.953125 231.191406 C 278.863281 223.242188 281.011719 210.691406 270.160156 208.378906 C 269.960938 208.332031 269.757812 208.320312 269.554688 208.351562 C 269.347656 208.378906 269.15625 208.445312 268.976562 208.546875 C 268.796875 208.652344 268.644531 208.78125 268.511719 208.945312 C 268.382812 209.105469 268.289062 209.285156 268.226562 209.480469 C 264.570312 218.664062 261 227.984375 257.996094 237.421875 C 257.109375 240.222656 256.800781 242.058594 258.402344 244.617188 C 260.542969 248.027344 263.609375 251.082031 266.148438 254.203125 C 266.238281 254.335938 266.351562 254.441406 266.484375 254.53125 C 266.617188 254.617188 266.757812 254.675781 266.914062 254.710938 C 267.070312 254.742188 267.226562 254.746094 267.382812 254.71875 C 267.539062 254.691406 267.6875 254.636719 267.820312 254.554688 L 268.90625 257.371094 C 268.90625 257.609375 268.976562 257.847656 269.015625 258.078125 C 269.96875 263.65625 272.1875 269.171875 273.847656 274.566406 C 274.445312 276.503906 277.488281 275.675781 276.90625 273.734375 C 274.824219 267 271.300781 259.492188 272.082031 252.460938 Z M 272.082031 252.460938 " fill-opacity="1" fill-rule="nonzero"/><path fill="#447233" d="M 271.0625 325.160156 C 269.28125 319.128906 264.410156 314.578125 262.652344 308.570312 C 261.125 303.28125 262.363281 298 258.652344 293.5 C 258.535156 293.34375 258.394531 293.21875 258.222656 293.125 C 258.050781 293.03125 257.867188 292.980469 257.671875 292.96875 C 257.476562 292.957031 257.289062 292.988281 257.105469 293.0625 C 256.925781 293.136719 256.769531 293.242188 256.632812 293.386719 C 255.816406 291.425781 254.648438 289.707031 253.125 288.226562 C 252.808594 287.847656 252.40625 287.691406 251.917969 287.753906 C 251.792969 287.507812 251.609375 287.320312 251.363281 287.195312 C 251.117188 287.070312 250.859375 287.03125 250.585938 287.082031 C 247.863281 287.363281 246.371094 288.839844 245.835938 291.59375 C 244.867188 296.601562 244.925781 301.8125 243.910156 306.863281 C 242.847656 312.136719 240.085938 325.167969 246.761719 328.390625 C 246.964844 328.484375 247.171875 328.5625 247.390625 328.621094 C 248.511719 332.730469 251.160156 336.332031 249.683594 340.808594 C 249.648438 340.945312 249.632812 341.082031 249.632812 341.21875 C 249.632812 341.359375 249.652344 341.492188 249.6875 341.628906 C 249.722656 341.761719 249.777344 341.886719 249.84375 342.007812 C 249.914062 342.128906 249.996094 342.238281 250.09375 342.335938 C 250.191406 342.433594 250.300781 342.519531 250.421875 342.585938 C 250.542969 342.65625 250.667969 342.710938 250.800781 342.746094 C 250.933594 342.785156 251.070312 342.804688 251.210938 342.804688 C 251.347656 342.804688 251.484375 342.789062 251.617188 342.753906 C 257.140625 341.222656 264.65625 339.5 269.3125 335.957031 C 272.5 333.5 272.089844 328.640625 271.0625 325.160156 Z M 271.0625 325.160156 " fill-opacity="1" fill-rule="nonzero"/><path fill="#447233" d="M 197.003906 309.511719 C 189.359375 304.367188 181.710938 299.417969 174.828125 293.265625 C 174.648438 293.101562 174.441406 292.988281 174.210938 292.921875 C 173.980469 292.851562 173.742188 292.835938 173.503906 292.871094 C 173.265625 292.910156 173.046875 292.996094 172.84375 293.132812 C 172.644531 293.265625 172.484375 293.4375 172.359375 293.644531 L 170.402344 292.589844 C 170.257812 292.109375 170.125 291.625 170.011719 291.136719 C 169.539062 289.160156 166.496094 289.996094 166.953125 291.976562 C 171.011719 308.953125 191.582031 321.785156 208.109375 322.878906 C 208.316406 322.875 208.515625 322.832031 208.707031 322.75 C 208.898438 322.671875 209.066406 322.554688 209.214844 322.410156 C 209.359375 322.261719 209.472656 322.09375 209.554688 321.902344 C 209.636719 321.710938 209.679688 321.511719 209.683594 321.304688 C 210.113281 316.230469 200.5 311.867188 197.003906 309.511719 Z M 197.003906 309.511719 " fill-opacity="1" fill-rule="nonzero"/><path fill="#447233" d="M 187.246094 357.515625 C 185.664062 351.953125 180.082031 348.691406 175.664062 345.441406 C 169.203125 340.695312 162.617188 336.1875 156.929688 330.488281 C 156.761719 330.320312 156.570312 330.195312 156.347656 330.121094 C 156.125 330.042969 155.894531 330.015625 155.664062 330.042969 C 155.429688 330.070312 155.214844 330.148438 155.015625 330.277344 C 154.816406 330.402344 154.65625 330.570312 154.535156 330.769531 L 153.164062 329.882812 C 153.027344 329.339844 152.914062 328.796875 152.820312 328.246094 C 152.5 326.246094 149.464844 327.097656 149.761719 329.078125 C 151.054688 337.183594 157.800781 344.75 163.648438 350.152344 C 169.765625 355.832031 177.230469 359.542969 185.703125 359.511719 C 185.949219 359.515625 186.183594 359.460938 186.40625 359.351562 C 186.628906 359.242188 186.816406 359.089844 186.96875 358.894531 C 187.117188 358.699219 187.21875 358.480469 187.269531 358.238281 C 187.316406 357.996094 187.3125 357.753906 187.246094 357.515625 Z M 187.246094 357.515625 " fill-opacity="1" fill-rule="nonzero"/><path fill="#dd9f72" d="M 221.320312 192.261719 C 221.320312 192.125 221.300781 191.988281 221.261719 191.855469 C 221.226562 191.722656 221.171875 191.597656 221.101562 191.480469 C 221.03125 191.359375 220.949219 191.25 220.851562 191.15625 C 220.753906 191.058594 220.644531 190.976562 220.523438 190.90625 C 220.402344 190.839844 220.277344 190.785156 220.144531 190.75 C 220.011719 190.714844 219.875 190.699219 219.738281 190.699219 C 219.597656 190.699219 219.464844 190.714844 219.332031 190.75 C 219.195312 190.789062 219.070312 190.839844 218.949219 190.910156 C 215.734375 192.878906 212.359375 194.519531 208.824219 195.828125 C 205.285156 197.136719 201.65625 198.089844 197.933594 198.6875 C 194.210938 199.285156 190.464844 199.515625 186.699219 199.378906 C 182.929688 199.238281 179.210938 198.738281 175.539062 197.871094 C 171.699219 196.96875 168 195.664062 164.445312 193.953125 C 162.746094 193.136719 160.828125 191.597656 158.871094 191.660156 C 156.914062 191.71875 156.523438 192.605469 155.695312 194.328125 C 153.511719 198.851562 151.476562 201.980469 146.933594 204.523438 C 146.753906 204.628906 146.605469 204.765625 146.480469 204.933594 C 146.355469 205.097656 146.265625 205.28125 146.214844 205.484375 C 146.160156 205.683594 146.148438 205.886719 146.175781 206.09375 C 146.199219 206.300781 146.265625 206.492188 146.367188 206.671875 C 147.628906 209.03125 148.902344 211.382812 150.191406 213.738281 C 150.328125 213.988281 150.523438 214.183594 150.769531 214.324219 C 151.019531 214.464844 151.285156 214.53125 151.570312 214.523438 C 151.859375 214.515625 152.121094 214.433594 152.359375 214.277344 C 152.601562 214.125 152.78125 213.917969 152.90625 213.660156 C 153.355469 213.828125 153.777344 213.78125 154.175781 213.515625 C 163.421875 207.929688 173.515625 213.554688 183.171875 214.5625 C 192.492188 215.542969 200.707031 212.375 209.570312 210.101562 C 213.0625 209.207031 215.25 209.613281 218.507812 211.011719 C 219.832031 211.585938 221.8125 212.855469 223.285156 212.6875 C 224.914062 212.496094 225.765625 211.601562 226.453125 209.988281 C 229.214844 203.414062 221.144531 198.453125 221.320312 192.261719 Z M 221.320312 192.261719 " fill-opacity="1" fill-rule="nonzero"/><path fill="#dd9f72" d="M 238.679688 118.335938 C 236.125 113.601562 231.15625 112.367188 226.109375 112.070312 C 216.679688 111.519531 207.039062 112.167969 197.601562 112.253906 L 138.851562 112.78125 C 136.824219 112.78125 136.816406 115.949219 138.851562 115.933594 L 139.21875 115.933594 L 139.640625 117.761719 C 138.246094 118.136719 137.863281 120.417969 139.570312 120.785156 C 155.941406 124.292969 172.574219 126.734375 189.335938 127.09375 C 205.242188 127.4375 222.859375 126.847656 237.738281 120.65625 C 237.972656 120.585938 238.179688 120.46875 238.359375 120.304688 C 238.535156 120.140625 238.671875 119.945312 238.765625 119.722656 C 238.855469 119.496094 238.894531 119.261719 238.878906 119.019531 C 238.863281 118.777344 238.796875 118.550781 238.679688 118.335938 Z M 238.679688 118.335938 " fill-opacity="1" fill-rule="nonzero"/><path fill="#d39c2d" d="M 289.300781 93.757812 C 289.035156 93.53125 288.726562 93.40625 288.378906 93.378906 C 288.03125 93.351562 287.710938 93.429688 287.414062 93.613281 C 287.1875 93.503906 286.953125 93.464844 286.707031 93.492188 C 286.460938 93.515625 286.238281 93.605469 286.042969 93.757812 C 272.691406 102.894531 256.503906 104.273438 240.765625 104.617188 C 223.515625 105 206.25 105.105469 189 105.097656 C 154.289062 105.097656 118.976562 104.761719 85.445312 94.738281 C 85.101562 94.648438 84.765625 94.667969 84.4375 94.804688 C 84.109375 94.9375 83.855469 95.160156 83.671875 95.464844 C 82.613281 97.171875 81.8125 98.996094 81.261719 100.929688 C 80.714844 102.867188 80.441406 104.839844 80.445312 106.851562 C 80.441406 107.207031 80.546875 107.527344 80.761719 107.8125 C 80.976562 108.097656 81.257812 108.285156 81.601562 108.382812 C 123.734375 114.144531 166.265625 115.214844 208.734375 115.191406 C 229.726562 115.191406 251.121094 116.058594 272.019531 113.792969 C 276.507812 113.328125 280.960938 112.628906 285.378906 111.695312 C 288.308594 111.050781 291.847656 110.402344 293.949219 108.015625 C 298.445312 102.933594 293.300781 97.03125 289.300781 93.757812 Z M 289.300781 93.757812 " fill-opacity="1" fill-rule="nonzero"/><path fill="#81c469" d="M 145.074219 202.273438 C 144.871094 202.332031 144.671875 202.410156 144.464844 202.480469 L 143.445312 201.179688 C 143.71875 200.933594 143.886719 200.632812 143.953125 200.273438 C 144.019531 199.914062 143.96875 199.570312 143.804688 199.246094 C 143.640625 198.917969 143.394531 198.675781 143.066406 198.515625 C 142.742188 198.355469 142.398438 198.3125 142.039062 198.386719 C 119.71875 203.207031 97.773438 215.441406 86.21875 235.652344 C 80.445312 245.808594 76.621094 257.15625 73.113281 268.269531 C 69.027344 281.195312 69.289062 295.125 69.992188 308.539062 C 70.070312 309.976562 72.195312 310.835938 72.929688 309.304688 C 77.515625 299.882812 80.253906 289.757812 83.6875 279.894531 C 87.5625 268.78125 91.976562 257.824219 97.765625 247.5625 C 108.652344 228.269531 124.527344 212.257812 145.941406 205.28125 C 147.828125 204.683594 147.011719 201.636719 145.074219 202.273438 Z M 145.074219 202.273438 " fill-opacity="1" fill-rule="nonzero"/><path fill="#81c469" d="M 255.472656 204.882812 C 253.941406 197.421875 248.167969 196.65625 241.59375 195.484375 C 239.015625 195.03125 233.863281 193.441406 231.371094 194.8125 C 229.074219 196.074219 228.371094 199.824219 227.453125 202.050781 C 227.363281 202.242188 227.324219 202.445312 227.335938 202.65625 C 227.34375 202.867188 227.402344 203.066406 227.507812 203.25 C 227.613281 203.433594 227.753906 203.582031 227.933594 203.695312 C 228.113281 203.808594 228.304688 203.875 228.515625 203.894531 C 228.164062 204.867188 228.617188 206.082031 229.902344 205.929688 C 238.421875 204.894531 246.808594 205.570312 255.050781 207.964844 C 256.265625 208.316406 255.703125 206.03125 255.472656 204.882812 Z M 255.472656 204.882812 " fill-opacity="1" fill-rule="nonzero"/><path fill="#ffd580" d="M 208.910156 43.003906 C 206.890625 39.703125 204.472656 36.722656 201.65625 34.066406 C 198.84375 31.410156 195.730469 29.171875 192.316406 27.347656 C 184.53125 23.273438 179.28125 26.074219 172.550781 30.890625 C 158.234375 41.136719 144.355469 52.101562 133.734375 66.261719 C 129.691406 70.445312 125.761719 74.761719 122.019531 79.222656 C 119.804688 81.863281 117.332031 84.679688 118.824219 88.253906 C 118.894531 88.484375 119.011719 88.6875 119.171875 88.863281 C 119.335938 89.042969 119.527344 89.175781 119.75 89.265625 C 119.972656 89.359375 120.203125 89.398438 120.441406 89.386719 C 120.679688 89.371094 120.90625 89.308594 121.117188 89.195312 C 127.503906 86.273438 132.65625 80.488281 138.046875 76.078125 C 144.714844 70.570312 151.652344 65.429688 158.863281 60.660156 C 165.40625 56.335938 172.25 52.558594 179.394531 49.324219 C 184.121094 47.21875 188.664062 45.382812 193.921875 45.191406 C 198.472656 45.03125 202.960938 45.75 207.527344 45.375 C 207.664062 45.375 207.800781 45.359375 207.9375 45.320312 C 208.070312 45.285156 208.199219 45.234375 208.316406 45.164062 C 208.4375 45.09375 208.546875 45.011719 208.644531 44.914062 C 208.746094 44.816406 208.828125 44.707031 208.898438 44.585938 C 208.96875 44.46875 209.023438 44.339844 209.058594 44.207031 C 209.09375 44.074219 209.113281 43.9375 209.117188 43.796875 C 209.117188 43.660156 209.097656 43.523438 209.066406 43.386719 C 209.03125 43.253906 208.980469 43.125 208.910156 43.003906 Z M 208.910156 43.003906 " fill-opacity="1" fill-rule="nonzero"/><g clip-path="url(#b0ecab749d)"><path fill="#3f2622" d="M 363.535156 254.242188 C 354.511719 251.945312 343.425781 254.871094 334.722656 260.714844 C 337.980469 252.179688 340.476562 243.425781 342.21875 234.453125 C 342.371094 234.324219 342.511719 234.183594 342.636719 234.023438 C 358.980469 231.890625 373.882812 213.75 374.839844 197.710938 C 374.835938 197.292969 374.753906 196.894531 374.59375 196.507812 C 374.429688 196.125 374.203125 195.785156 373.910156 195.488281 C 373.613281 195.195312 373.273438 194.964844 372.890625 194.804688 C 372.503906 194.644531 372.105469 194.5625 371.6875 194.558594 C 362.289062 195.109375 352.449219 201.355469 345.910156 209.671875 C 346.789062 198.945312 346.160156 188.304688 344.023438 177.753906 C 357.019531 167.582031 360.570312 144.363281 353.257812 130.128906 C 353.046875 129.769531 352.773438 129.464844 352.441406 129.214844 C 352.105469 128.960938 351.738281 128.785156 351.335938 128.675781 C 350.933594 128.570312 350.523438 128.542969 350.109375 128.597656 C 349.695312 128.652344 349.308594 128.78125 348.945312 128.988281 C 342.476562 133.320312 337.75 141.171875 335.511719 149.691406 C 331.742188 139.378906 326.941406 129.570312 321.113281 120.265625 C 317.449219 114.417969 313.425781 108.835938 309.039062 103.515625 C 304.648438 98.195312 299.933594 93.179688 294.890625 88.476562 C 289.851562 83.769531 284.523438 79.414062 278.914062 75.402344 C 273.304688 71.390625 267.457031 67.761719 261.375 64.515625 C 258.378906 61.90625 255.402344 59.28125 252.496094 56.695312 C 235.71875 41.789062 218.554688 26.847656 200.027344 14.097656 C 196.09375 11.398438 191.023438 7.242188 185.96875 7.570312 C 179.851562 7.992188 173.628906 12.605469 168.726562 15.914062 C 149.816406 28.6875 132.625 44.320312 116.109375 59.992188 C 113.332031 62.625 112.125 63.820312 109.394531 66.460938 L 107.523438 67.429688 C 103.628906 69.699219 99.839844 72.132812 96.15625 74.726562 C 92.46875 77.320312 88.902344 80.066406 85.453125 82.964844 C 82 85.863281 78.679688 88.90625 75.492188 92.089844 C 72.300781 95.273438 69.253906 98.585938 66.34375 102.03125 C 63.4375 105.476562 60.683594 109.039062 58.082031 112.71875 C 55.480469 116.398438 53.039062 120.183594 50.761719 124.074219 C 48.480469 127.964844 46.375 131.945312 44.433594 136.015625 C 42.496094 140.085938 40.738281 144.230469 39.152344 148.449219 C 36.804688 140.414062 32.226562 133.144531 26.070312 128.988281 C 25.707031 128.78125 25.316406 128.652344 24.902344 128.597656 C 24.488281 128.542969 24.078125 128.570312 23.675781 128.675781 C 23.273438 128.78125 22.902344 128.960938 22.570312 129.214844 C 22.234375 129.464844 21.960938 129.769531 21.75 130.128906 C 14.453125 144.363281 18.023438 167.582031 30.992188 177.753906 C 28.851562 188.304688 28.21875 198.941406 29.105469 209.671875 C 22.566406 201.355469 12.726562 195.132812 3.328125 194.558594 C 2.90625 194.558594 2.503906 194.636719 2.117188 194.792969 C 1.726562 194.953125 1.386719 195.179688 1.085938 195.476562 C 0.789062 195.773438 0.558594 196.113281 0.398438 196.5 C 0.238281 196.886719 0.15625 197.292969 0.152344 197.710938 C 1.09375 213.597656 15.707031 231.515625 31.867188 233.941406 C 33.582031 242.847656 36.035156 251.546875 39.230469 260.035156 C 30.710938 254.679688 20.113281 252.046875 11.457031 254.242188 C 9.925781 254.625 8.648438 256.539062 9.246094 258.121094 C 14.914062 272.921875 34.066406 285.566406 50.164062 283.175781 C 51.484375 285.46875 52.863281 287.726562 54.296875 289.949219 C 55.730469 292.171875 57.222656 294.355469 58.765625 296.503906 C 60.308594 298.652344 61.90625 300.761719 63.554688 302.828125 C 65.207031 304.894531 66.90625 306.921875 68.65625 308.902344 C 70.40625 310.882812 72.207031 312.820312 74.054688 314.714844 C 75.902344 316.605469 77.796875 318.449219 79.738281 320.246094 C 81.679688 322.042969 83.664062 323.789062 85.691406 325.488281 C 87.71875 327.183594 89.789062 328.832031 91.902344 330.425781 C 94.011719 332.015625 96.160156 333.558594 98.347656 335.042969 C 100.535156 336.527344 102.761719 337.957031 105.019531 339.332031 C 107.277344 340.707031 109.570312 342.023438 111.898438 343.28125 C 114.222656 344.539062 116.578125 345.738281 118.964844 346.878906 C 121.347656 348.019531 123.761719 349.101562 126.203125 350.121094 C 128.640625 351.136719 131.105469 352.097656 133.59375 352.992188 C 136.078125 353.886719 138.589844 354.71875 141.117188 355.492188 C 143.648438 356.261719 146.195312 356.964844 148.757812 357.609375 C 151.324219 358.25 153.902344 358.828125 156.496094 359.339844 C 159.089844 359.851562 161.695312 360.300781 164.3125 360.679688 C 166.929688 361.0625 169.550781 361.378906 172.183594 361.628906 C 174.816406 361.878906 177.453125 362.0625 180.09375 362.179688 C 182.734375 362.296875 185.378906 362.347656 188.023438 362.335938 C 190.664062 362.320312 193.308594 362.238281 195.945312 362.089844 C 198.585938 361.941406 201.222656 361.730469 203.851562 361.449219 C 206.480469 361.167969 209.097656 360.824219 211.710938 360.414062 C 214.324219 360 216.921875 359.523438 219.511719 358.984375 C 222.097656 358.441406 224.671875 357.835938 227.226562 357.164062 C 229.785156 356.492188 232.324219 355.757812 234.84375 354.960938 C 237.363281 354.160156 239.863281 353.300781 242.339844 352.375 C 244.820312 351.453125 247.273438 350.464844 249.699219 349.417969 C 252.128906 348.371094 254.527344 347.265625 256.902344 346.097656 C 259.273438 344.929688 261.613281 343.703125 263.925781 342.417969 C 266.238281 341.132812 268.515625 339.792969 270.757812 338.390625 C 272.730469 337.152344 274.6875 335.851562 276.617188 334.511719 C 279.734375 337.984375 283.015625 341.300781 286.457031 344.460938 C 296.503906 353.644531 309.824219 362.742188 324.171875 359.964844 C 338.738281 357.140625 342.859375 340.121094 342.773438 327.3125 C 342.667969 311.667969 336.429688 297.183594 329.460938 283.453125 C 344.425781 283.140625 360.609375 271.484375 365.722656 258.089844 C 366.335938 256.554688 365.066406 254.625 363.535156 254.242188 Z M 367.964844 201.484375 C 365.472656 212.328125 355.421875 224.40625 344.71875 227.265625 C 345.847656 216.492188 357.121094 204.371094 367.964844 201.484375 Z M 7.035156 201.484375 C 17.894531 204.371094 29.164062 216.476562 30.28125 227.265625 C 19.5625 224.40625 9.519531 212.328125 7.035156 201.484375 Z M 336.023438 227.351562 C 326.328125 222.972656 318.121094 209.75 318.007812 199.035156 C 326.464844 203.382812 334.394531 213.292969 336.644531 222.964844 C 336.445312 224.414062 336.230469 225.875 336.007812 227.351562 Z M 349.265625 136.839844 C 352.632812 147.441406 350.164062 162.976562 342.386719 170.894531 C 342.324219 170.757812 342.269531 170.621094 342.21875 170.484375 C 342.09375 170.054688 341.964844 169.625 341.828125 169.191406 C 341.738281 168.917969 341.613281 168.664062 341.453125 168.425781 C 338.453125 158.5 341.964844 144.203125 349.253906 136.839844 Z M 336.113281 181.59375 C 337.234375 189.074219 337.796875 196.59375 337.804688 204.15625 C 337.804688 205.984375 337.757812 207.804688 337.691406 209.625 C 332.574219 201.132812 324.605469 194.113281 316.101562 191.429688 C 315.699219 191.324219 315.292969 191.296875 314.878906 191.351562 C 314.464844 191.402344 314.078125 191.535156 313.714844 191.738281 C 313.355469 191.945312 313.042969 192.210938 312.785156 192.539062 C 312.527344 192.867188 312.339844 193.230469 312.226562 193.632812 C 309.414062 208.457031 320.355469 228.253906 334.859375 233.71875 C 333.066406 242.726562 330.476562 251.5 327.089844 260.035156 C 325.011719 249.710938 319.238281 239.769531 311.507812 234.316406 C 310.152344 233.359375 307.960938 234.054688 307.203125 235.453125 C 306.625 236.523438 306.128906 237.632812 305.71875 238.777344 C 301.890625 232.800781 297.484375 227.285156 292.496094 222.238281 C 300.390625 207.367188 307.449219 192.113281 313.671875 176.46875 C 320.722656 180.4375 328.867188 182.511719 336.113281 181.59375 Z M 320.769531 275.308594 C 320.769531 275.394531 320.722656 275.488281 320.699219 275.570312 C 312.042969 268.9375 307.953125 252.902344 311.195312 242.183594 C 318.4375 249.359375 323.015625 262.492188 321.3125 272.792969 C 321.019531 273.609375 320.839844 274.449219 320.769531 275.308594 Z M 249.246094 267.980469 C 244.796875 266.128906 238.425781 266.449219 233.074219 268.460938 C 232.734375 267.480469 232.507812 266.476562 232.394531 265.445312 C 232.125 261.480469 234.199219 261.03125 237.296875 260.417969 C 242.128906 259.460938 246.878906 260.234375 251.425781 261.949219 C 255.25 263.410156 256.855469 257.3125 253.109375 255.871094 C 249.109375 254.320312 244.964844 253.554688 240.675781 253.578125 C 240.835938 250.636719 241.484375 247.609375 244.605469 246.621094 C 247.496094 245.703125 251.199219 246.542969 254.019531 247.269531 C 261.4375 249.191406 264.816406 253.84375 266.542969 261.046875 C 268.457031 269.035156 270.214844 278.140625 278.054688 281.847656 C 276.984375 290.785156 273.617188 299.1875 264.730469 301.476562 C 260.144531 292.292969 253.988281 282.304688 242.558594 281.632812 C 240.363281 281.492188 238.234375 281.800781 236.171875 282.566406 C 233.304688 283.660156 232.347656 286.316406 230.3125 282.726562 C 225.519531 274.15625 242.550781 271.957031 247.542969 274.023438 C 251.3125 275.625 252.949219 269.515625 249.246094 267.980469 Z M 230.949219 192.003906 L 230.613281 191.957031 C 230.140625 191.871094 229.679688 191.917969 229.234375 192.101562 C 228.792969 192.28125 228.429688 192.566406 228.148438 192.960938 C 227.71875 193.230469 227.378906 193.589844 227.136719 194.039062 C 226.890625 194.488281 226.773438 194.964844 226.78125 195.476562 C 226.746094 196.878906 226.59375 198.269531 226.324219 199.648438 C 224.386719 197.289062 224.136719 193.816406 223.945312 190.726562 C 226.632812 188.25 229.027344 185.523438 231.132812 182.535156 C 231.019531 185.71875 230.878906 188.871094 230.949219 192.003906 Z M 224.066406 206.121094 C 218.523438 217.21875 205.394531 224.734375 193.679688 226.179688 C 178.730469 228.03125 158.574219 221.449219 151.347656 207.246094 C 153.992188 205.265625 156.347656 202.769531 157.195312 199.488281 C 157.492188 198.351562 157.71875 197.203125 157.882812 196.042969 C 162.960938 199.347656 168.453125 201.664062 174.363281 202.992188 C 190.109375 206.542969 205.867188 203.636719 218.109375 195.339844 C 218.851562 199.65625 220.382812 203.695312 224.089844 206.152344 Z M 223.984375 181.785156 C 205.5 205.097656 162.695312 203.980469 148.21875 176.695312 C 143.714844 168.226562 143.101562 157.398438 142.015625 148.054688 C 141.542969 143.964844 141.167969 139.855469 140.96875 135.730469 C 141.226562 135.347656 141.382812 134.921875 141.4375 134.460938 C 142.28125 128.273438 143.828125 122.265625 146.070312 116.441406 C 146.109375 116.347656 146.117188 116.257812 146.144531 116.164062 C 152.089844 116.285156 158.03125 116.382812 163.972656 116.453125 C 186.445312 116.714844 208.917969 116.609375 231.378906 115.996094 C 233.21875 123.457031 234.355469 131.027344 234.789062 138.703125 C 234.804688 139.378906 235.027344 139.984375 235.445312 140.515625 C 235.152344 147.800781 234.34375 155.027344 233.027344 162.195312 C 232.347656 165.785156 231.246094 169.242188 229.71875 172.558594 C 228.195312 175.878906 226.289062 178.964844 224.003906 181.816406 Z M 134.738281 136.136719 C 134.878906 139.199219 135.109375 142.238281 135.425781 145.261719 C 135.609375 147.066406 135.785156 148.910156 135.96875 150.777344 C 133.519531 148.78125 132.246094 144.65625 132.296875 141.96875 C 132.300781 140.875 132.511719 139.820312 132.9375 138.808594 C 133.359375 137.800781 133.957031 136.910156 134.738281 136.136719 Z M 241.171875 146.851562 L 241.53125 140.578125 C 241.65625 137.789062 241.726562 135.003906 241.753906 132.21875 C 244.445312 133.597656 245.308594 138.042969 244.964844 140.691406 C 244.796875 141.988281 244.382812 143.199219 243.71875 144.328125 C 243.054688 145.453125 242.195312 146.40625 241.140625 147.179688 Z M 237.402344 171.777344 C 237.386719 171.515625 237.34375 171.261719 237.265625 171.011719 C 237.265625 170.925781 237.339844 170.84375 237.371094 170.757812 C 239.269531 165.714844 240.09375 160.121094 240.597656 154.574219 C 242.363281 153.878906 243.972656 152.921875 245.429688 151.710938 C 246.886719 150.496094 248.121094 149.085938 249.125 147.480469 C 252.664062 147.785156 256.207031 148.105469 259.746094 148.472656 C 258.253906 152.605469 257.113281 156.828125 256.320312 161.148438 C 256.242188 161.5 256.230469 161.855469 256.28125 162.210938 C 256.183594 162.417969 256.109375 162.632812 256.058594 162.855469 C 256.003906 163.078125 255.976562 163.304688 255.96875 163.535156 C 255.964844 163.761719 255.984375 163.988281 256.027344 164.214844 C 256.066406 164.441406 256.132812 164.660156 256.222656 164.871094 C 256.308594 165.082031 256.417969 165.28125 256.546875 165.472656 C 256.675781 165.660156 256.824219 165.832031 256.992188 165.992188 C 257.15625 166.148438 257.335938 166.289062 257.53125 166.40625 C 257.726562 166.527344 257.933594 166.625 258.148438 166.703125 C 259.273438 167.09375 260.40625 167.46875 261.542969 167.859375 C 258.53125 177.582031 255.640625 187.347656 252.871094 197.152344 C 247.777344 195.367188 242.574219 193.984375 237.265625 193.003906 C 237.035156 185.878906 237.96875 178.808594 237.402344 171.722656 Z M 257.132812 205.515625 L 258.804688 199.488281 C 261.605469 189.570312 264.527344 179.679688 267.570312 169.816406 C 269.792969 170.484375 272.027344 171.125 274.277344 171.707031 L 274.597656 171.792969 C 272.140625 182.300781 269.417969 192.746094 266.628906 203.167969 L 264.960938 209.289062 C 262.078125 220.003906 259.164062 230.65625 256.441406 241.386719 C 253.75 240.523438 250.988281 240.054688 248.160156 239.976562 C 250.984375 228.402344 253.976562 216.898438 257.132812 205.464844 Z M 288.09375 152.363281 C 288.429688 155.039062 286.648438 159.300781 286.011719 161.941406 C 285.667969 163.382812 285.632812 165.378906 284.523438 166.417969 C 283.414062 167.460938 282.023438 167.109375 280.613281 166.765625 C 280.257812 166.378906 279.824219 166.144531 279.308594 166.058594 C 274.898438 165.28125 270.621094 164.054688 266.46875 162.378906 C 265.90625 162.171875 265.347656 162.171875 264.785156 162.378906 C 264.082031 162.132812 263.378906 161.90625 262.675781 161.613281 C 263.707031 156.464844 265.824219 145.980469 270.652344 145.78125 C 273.417969 145.664062 277.203125 147.457031 279.828125 148.328125 C 281.355469 148.816406 282.839844 149.347656 284.324219 149.929688 C 285.378906 150.324219 286.433594 150.753906 287.472656 151.222656 C 289.101562 151.441406 289.300781 151.804688 288.09375 152.308594 Z M 292.535156 161.707031 C 292.773438 160.6875 293.164062 159.410156 293.5625 158.117188 C 295.105469 158.6875 296.578125 159.410156 297.972656 160.289062 C 300.382812 165.355469 303.832031 169.566406 308.320312 172.925781 C 302.292969 188.238281 295.4375 203.167969 287.75 217.714844 C 282.949219 213.433594 277.796875 209.632812 272.296875 206.304688 C 275.246094 195.308594 278.136719 184.289062 280.707031 173.183594 C 283.253906 173.605469 285.816406 173.652344 287.886719 172.640625 C 291.542969 170.875 291.734375 165.21875 292.535156 161.652344 Z M 272.234375 257.816406 C 270.621094 251.808594 267.570312 246.894531 262.292969 243.835938 C 264.929688 233.390625 267.761719 222.988281 270.574219 212.582031 C 283.679688 220.890625 303.457031 246.84375 303.90625 247.085938 C 302.828125 259.628906 308.027344 274.09375 317.519531 281.019531 C 314.488281 285.789062 310.957031 290.15625 306.925781 294.121094 C 298.675781 288.238281 290.980469 281.699219 283.847656 274.5 C 283.679688 274.332031 283.496094 274.191406 283.296875 274.066406 C 283.09375 273.941406 282.882812 273.84375 282.660156 273.765625 C 282.4375 273.691406 282.207031 273.640625 281.972656 273.617188 C 281.738281 273.59375 281.503906 273.597656 281.273438 273.625 C 281.039062 273.65625 280.808594 273.710938 280.589844 273.789062 C 280.367188 273.871094 280.15625 273.976562 279.960938 274.101562 C 279.761719 274.230469 279.582031 274.378906 279.417969 274.546875 C 279.253906 274.71875 279.109375 274.902344 278.984375 275.105469 C 274.167969 271.363281 273.71875 263.328125 272.234375 257.816406 Z M 334.570312 172.871094 C 334.746094 173.691406 334.890625 174.53125 335.050781 175.375 C 324.546875 176.550781 310.582031 169.511719 304.96875 160.191406 C 315.078125 159.625 328.03125 164.714844 334.570312 172.871094 Z M 331.878906 162.074219 C 322.75 155.660156 310.566406 152.539062 300.527344 154.421875 C 298.710938 153.355469 296.800781 152.496094 294.800781 151.839844 C 294.894531 150.695312 294.714844 149.589844 294.257812 148.535156 C 292.667969 145.28125 286.363281 143.945312 283.285156 142.839844 C 278.871094 141.3125 273.183594 138.871094 268.425781 139.222656 C 266.246094 139.375 264.464844 140.628906 262.980469 142.472656 C 259.0625 142.0625 255.140625 141.683594 251.21875 141.339844 C 251.316406 140.578125 251.355469 139.8125 251.34375 139.046875 C 251.199219 133.742188 248.328125 127.828125 243.320312 126.035156 C 244.390625 122.675781 245.308594 119.265625 246.066406 115.8125 C 246.070312 115.757812 246.070312 115.703125 246.066406 115.652344 C 259.179688 115.222656 272.316406 114.558594 285.277344 112.796875 C 288.804688 112.324219 293.523438 112.078125 296.582031 109.996094 C 300.695312 107.171875 297.796875 102.597656 295.5625 99.550781 L 295.152344 99.015625 C 299.449219 103.414062 303.457031 108.0625 307.183594 112.957031 C 310.90625 117.851562 314.316406 122.957031 317.410156 128.269531 C 320.507812 133.585938 323.265625 139.070312 325.6875 144.726562 C 328.105469 150.378906 330.171875 156.164062 331.878906 162.074219 Z M 292.496094 106.292969 C 292.925781 106.429688 291.902344 106.652344 292.496094 106.292969 Z M 84.460938 103.230469 C 86.207031 100.667969 88.101562 98.21875 90.140625 95.882812 C 96.152344 88.796875 102.628906 82.109375 109.203125 75.542969 C 109.632812 75.105469 110.070312 74.703125 110.488281 74.265625 C 110.730469 74.085938 110.941406 73.875 111.125 73.636719 C 126.421875 58.316406 142.554688 43.933594 159.519531 30.492188 C 166.035156 25.394531 172.765625 20.273438 180.089844 16.363281 C 182.03125 15.332031 184.25 14.070312 186.476562 13.855469 C 186.84375 13.808594 186.835938 13.777344 187.621094 14.0625 C 188.429688 14.40625 189.21875 14.792969 189.984375 15.222656 C 205.980469 23.964844 220.210938 37.210938 233.984375 48.957031 C 241.371094 55.257812 248.726562 61.636719 255.9375 68.167969 C 255.9375 68.167969 258.945312 71.570312 260.785156 72.597656 C 268.128906 79.386719 275.316406 86.371094 282.199219 93.597656 C 284.613281 96.144531 287.015625 98.730469 289.210938 101.484375 C 289.730469 102.121094 290.867188 103.941406 291.648438 105.128906 C 290.472656 105.441406 289.308594 105.792969 288.101562 106.015625 C 273.945312 108.609375 259.148438 108.785156 244.8125 109.324219 C 223.632812 110.085938 202.425781 110.378906 181.230469 110.324219 C 167.464844 110.324219 153.703125 110.132812 140 109.742188 C 139.105469 109.308594 138.199219 109.28125 137.285156 109.660156 C 131.308594 109.480469 125.328125 109.253906 119.34375 108.976562 C 107.652344 108.417969 94.546875 108.757812 83.199219 105.382812 C 83.574219 104.625 83.992188 103.910156 84.460938 103.230469 Z M 39.414062 174.242188 C 45.53125 165.300781 59.371094 159.609375 70.039062 160.191406 C 64.308594 169.726562 49.789062 176.886719 39.214844 175.28125 C 39.273438 174.929688 39.34375 174.585938 39.414062 174.242188 Z M 34.566406 162.660156 C 33.800781 165.363281 33.1875 168.09375 32.597656 170.84375 C 24.84375 162.921875 22.398438 147.417969 25.746094 136.839844 C 31.695312 142.871094 35.136719 153.5625 34.566406 162.660156 Z M 38.25 227.710938 C 38.152344 227.007812 38.042969 226.300781 37.9375 225.582031 C 39.207031 215.121094 47.792969 203.773438 57.054688 199.027344 C 56.894531 210.03125 48.261719 223.675781 38.234375 227.6875 Z M 16.976562 259.789062 C 27.140625 259.332031 40.054688 265.789062 45.554688 274.5 C 45.988281 275.402344 46.457031 276.304688 46.914062 277.207031 C 35.886719 277.628906 22.589844 269.378906 16.976562 259.789062 Z M 54.363281 275.539062 C 54.332031 275.488281 54.304688 275.433594 54.277344 275.378906 C 51.21875 264.804688 55.960938 249.980469 63.828125 242.183594 C 67.046875 252.894531 62.964844 268.898438 54.339844 275.539062 Z M 57.480469 281.035156 C 70.160156 271.773438 75.183594 249.046875 67.820312 235.453125 C 67.609375 235.097656 67.335938 234.789062 67.003906 234.539062 C 66.671875 234.289062 66.304688 234.109375 65.902344 234.003906 C 65.5 233.894531 65.089844 233.871094 64.675781 233.921875 C 64.265625 233.976562 63.878906 234.109375 63.515625 234.316406 C 55.457031 239.992188 49.523438 250.539062 47.6875 261.304688 C 45.191406 254.746094 43.035156 248.078125 41.210938 241.300781 C 40.660156 239.28125 40.140625 237.238281 39.679688 235.179688 L 39.429688 233.976562 C 54.308594 228.933594 65.695312 208.722656 62.820312 193.609375 C 62.707031 193.207031 62.519531 192.84375 62.261719 192.515625 C 62.003906 192.183594 61.695312 191.917969 61.332031 191.710938 C 60.96875 191.503906 60.582031 191.375 60.167969 191.324219 C 59.753906 191.269531 59.34375 191.296875 58.941406 191.40625 C 50.003906 194.230469 41.660156 201.828125 36.589844 210.914062 C 36.492188 208.65625 36.445312 206.398438 36.445312 204.132812 C 36.449219 196.535156 37.03125 188.984375 38.1875 181.480469 C 53.34375 183.84375 72.722656 172.742188 77.777344 158.476562 C 77.882812 158.074219 77.914062 157.664062 77.859375 157.25 C 77.804688 156.835938 77.675781 156.445312 77.472656 156.082031 C 77.265625 155.71875 76.996094 155.410156 76.667969 155.152344 C 76.339844 154.894531 75.976562 154.710938 75.574219 154.597656 C 65.066406 152.222656 51.871094 155.597656 42.3125 162.667969 C 44.089844 156.5 46.246094 150.46875 48.789062 144.574219 C 51.328125 138.679688 54.230469 132.96875 57.492188 127.441406 C 60.757812 121.914062 64.355469 116.617188 68.289062 111.546875 C 72.222656 106.476562 76.460938 101.671875 81.003906 97.140625 C 80.070312 98.441406 79.160156 99.765625 78.359375 101.117188 C 77.371094 102.78125 76.308594 104.675781 76.363281 106.675781 C 76.363281 106.933594 76.394531 107.1875 76.460938 107.441406 L 76.460938 107.5 C 76.964844 110.816406 82.027344 111.625 84.597656 112.09375 C 90.78125 113.175781 97.003906 113.894531 103.269531 114.25 C 112.117188 114.917969 120.980469 115.367188 129.851562 115.691406 C 130.011719 118.746094 130.40625 121.769531 131.035156 124.765625 C 131.328125 126.539062 131.75 128.28125 132.304688 129.992188 C 131.25 130.742188 130.3125 131.613281 129.484375 132.605469 C 128.65625 133.601562 127.972656 134.6875 127.429688 135.859375 C 126.886719 137.035156 126.503906 138.257812 126.277344 139.53125 C 126.054688 140.808594 126 142.089844 126.113281 143.378906 C 126.601562 149.746094 130.546875 156.492188 136.816406 157.917969 C 137.582031 163.824219 138.652344 169.71875 140.640625 175.058594 C 141.839844 178.191406 143.390625 181.136719 145.289062 183.898438 C 147.1875 186.660156 149.382812 189.164062 151.875 191.40625 C 152.042969 194.949219 151.46875 198.292969 149.175781 200.820312 C 148.882812 199.382812 148.71875 197.929688 148.683594 196.464844 C 148.679688 196.109375 148.613281 195.765625 148.488281 195.429688 C 148.359375 195.097656 148.179688 194.796875 147.945312 194.53125 C 147.710938 194.261719 147.4375 194.042969 147.125 193.871094 C 146.816406 193.699219 146.484375 193.585938 146.132812 193.535156 C 145.445312 193.234375 144.753906 193.214844 144.050781 193.464844 C 134.195312 196.640625 124.613281 200.082031 115.84375 204.699219 C 127.855469 194.988281 132.382812 172.953125 125.101562 159.707031 C 124.335938 158.316406 122.160156 157.597656 120.789062 158.574219 C 111.5 165.210938 105.050781 178.378906 104.570312 190.824219 C 95.601562 181.386719 80.484375 175.785156 68.890625 178.800781 C 67.363281 179.199219 66.078125 181.097656 66.679688 182.683594 C 72.53125 197.734375 92.425781 210.53125 108.691406 207.363281 C 109.226562 207.710938 109.8125 207.839844 110.445312 207.746094 C 105.828125 210.484375 101.578125 213.710938 97.695312 217.417969 C 93.8125 221.128906 90.398438 225.226562 87.449219 229.714844 C 75.09375 248.753906 71.269531 271.589844 67.582031 293.707031 C 63.753906 289.847656 60.378906 285.621094 57.460938 281.035156 Z M 111.859375 199.914062 C 108.640625 189.355469 113.296875 174.371094 121.164062 166.472656 C 124.4375 177.140625 120.453125 193.210938 111.835938 199.878906 Z M 104.523438 201.597656 C 93.492188 202.113281 80.109375 193.945312 74.417969 184.359375 C 85.582031 183.753906 100.175781 191.527344 104.503906 201.5625 Z M 193.992188 354.84375 C 179.921875 346.550781 166.875 336.746094 153.90625 326.84375 C 150.679688 324.386719 147.539062 329.90625 150.71875 332.292969 C 160.996094 340.136719 171.3125 347.910156 182.140625 354.9375 C 171.296875 354.589844 160.617188 353.085938 150.101562 350.425781 C 139.582031 347.769531 129.46875 344.015625 119.765625 339.164062 C 120.121094 324.761719 120.296875 310.359375 120.292969 295.957031 C 120.292969 291.902344 113.992188 291.894531 113.992188 295.957031 C 113.992188 309.257812 113.839844 322.558594 113.53125 335.859375 C 105.757812 331.5 98.429688 326.492188 91.539062 320.839844 C 84.652344 315.183594 78.3125 308.964844 72.523438 302.1875 C 76.347656 279.640625 79.269531 255.835938 91.113281 235.816406 C 93.839844 231.074219 97.113281 226.746094 100.925781 222.824219 C 104.738281 218.90625 108.976562 215.519531 113.640625 212.664062 C 122.695312 207.207031 132.710938 203.742188 142.699219 200.496094 C 146.101562 222.851562 172.605469 234.765625 193.335938 232.554688 C 211.152344 230.664062 230.496094 217.464844 232.816406 198.570312 C 239.085938 199.480469 245.203125 201.011719 251.167969 203.160156 C 247.691406 215.726562 244.421875 228.339844 241.355469 241.003906 C 241.351562 241.054688 241.351562 241.105469 241.355469 241.15625 C 235.8125 243.492188 234.519531 249.0625 234.304688 254.535156 C 233.171875 254.859375 232.082031 255.289062 231.03125 255.828125 C 224.289062 259.308594 226.160156 265.574219 227.4375 271.515625 C 222.914062 275.027344 220.925781 280.269531 225.304688 286.589844 C 226.285156 288.207031 227.535156 289.582031 229.050781 290.707031 C 225.847656 303.808594 221.65625 317.253906 220.464844 330.609375 C 220.023438 335.546875 220.105469 343.441406 223.90625 347.269531 C 225.28125 348.648438 227.339844 349.015625 229.601562 348.882812 C 217.972656 352.292969 206.105469 354.265625 194 354.808594 Z M 245.753906 339.21875 C 244.222656 340.390625 239.636719 340.359375 237.707031 340.710938 C 235.78125 341.0625 230.957031 342.898438 229.050781 342.457031 C 224.855469 341.5 226.972656 328.605469 227.652344 325.207031 C 229.945312 313.480469 233.007812 301.851562 235.691406 290.203125 C 236.96875 289.390625 238.191406 288.464844 239.675781 288.152344 C 241.128906 287.824219 242.59375 287.789062 244.0625 288.050781 C 240.957031 298.292969 239.382812 308.765625 239.335938 319.464844 C 239.335938 323.03125 239.007812 327.433594 242.679688 329.371094 C 244.972656 330.585938 246.503906 329.5 246.90625 332.90625 C 247.144531 334.808594 247.144531 338.171875 245.761719 339.179688 Z M 252.835938 339.9375 C 253.597656 335.949219 254.234375 329.109375 250.9375 325.988281 C 249.453125 324.578125 246.90625 324.753906 245.714844 323.316406 C 244.414062 321.738281 245.769531 313.902344 245.921875 311.789062 C 246.484375 304.679688 247.777344 297.703125 249.796875 290.859375 C 253.421875 293.84375 256.152344 298.589844 258.253906 302.675781 C 257.660156 303.097656 257.265625 303.65625 257.070312 304.359375 C 256.886719 304.59375 256.746094 304.847656 256.644531 305.125 C 256.539062 305.402344 256.480469 305.691406 256.46875 305.984375 C 256.457031 306.28125 256.488281 306.574219 256.566406 306.859375 C 256.644531 307.144531 256.765625 307.410156 256.925781 307.660156 C 259.609375 312.25 262.554688 316.71875 265.671875 321.042969 C 265.75 324.953125 265.832031 328.855469 265.902344 332.75 C 261.667969 335.355469 257.316406 337.738281 252.839844 339.898438 Z M 336.261719 322.796875 C 337.324219 335.308594 334.730469 354.570312 318.550781 354.171875 C 305.710938 353.882812 294.992188 344.292969 286.386719 335.714844 C 281.050781 330.359375 276.140625 324.632812 271.660156 318.539062 C 271.503906 318.226562 271.296875 317.949219 271.039062 317.707031 C 268.746094 314.554688 266.566406 311.316406 264.503906 307.996094 C 267.300781 307.492188 269.921875 306.519531 272.367188 305.070312 C 274.8125 303.621094 276.925781 301.789062 278.710938 299.578125 C 282.367188 294.984375 283.71875 289.445312 284.308594 283.773438 C 290.664062 289.734375 297.410156 295.210938 304.550781 300.203125 C 304.988281 300.746094 305.539062 301.125 306.199219 301.34375 C 309.046875 303.292969 311.945312 305.167969 314.902344 306.96875 C 318.382812 309.066406 321.554688 303.609375 318.089844 301.519531 C 316.109375 300.320312 314.183594 299.078125 312.257812 297.824219 C 316.265625 293.726562 319.792969 289.253906 322.847656 284.402344 C 329.085938 296.441406 335.082031 309.089844 336.269531 322.757812 Z M 328.046875 277.207031 C 332.320312 267.167969 346.859375 259.285156 358.039062 259.789062 C 352.394531 269.402344 339.066406 277.660156 328.046875 277.207031 Z M 328.046875 277.207031 " fill-opacity="1" fill-rule="nonzero"/></g><path fill="#3f2622" d="M 189.792969 302.203125 C 186.460938 300.785156 183.351562 298.984375 180.464844 296.796875 C 177.578125 294.609375 175 292.101562 172.734375 289.277344 C 170.1875 286.125 165.753906 290.609375 168.277344 293.738281 C 170.722656 296.769531 173.496094 299.464844 176.601562 301.816406 C 179.707031 304.171875 183.046875 306.117188 186.628906 307.652344 C 190.304688 309.210938 193.527344 303.785156 189.792969 302.203125 Z M 189.792969 302.203125 " fill-opacity="1" fill-rule="nonzero"/><path fill="#3f2622" d="M 204.046875 158.445312 C 200.332031 157.980469 196.953125 158.859375 193.527344 159.523438 C 193.234375 159.449219 192.9375 159.425781 192.636719 159.449219 C 193.402344 156.984375 190.878906 153.90625 188.164062 155.683594 C 186.484375 156.785156 183.242188 157.039062 183.203125 154.097656 C 183.203125 152.566406 185.113281 150.113281 185.742188 148.824219 C 187.28125 145.976562 188.121094 142.933594 188.265625 139.695312 C 188.347656 135.625 182.039062 135.625 181.957031 139.695312 C 181.832031 145.886719 174.761719 151.382812 177.191406 157.742188 C 177.308594 158.054688 177.449219 158.355469 177.613281 158.644531 C 175.65625 158.296875 173.6875 158.230469 171.710938 158.445312 C 166.355469 159.132812 162.082031 162.148438 159.0625 166.488281 C 157.289062 169.042969 157.347656 170.875 159.0625 170.253906 C 159.320312 170.160156 162.496094 168.617188 165.5625 169.863281 C 166.90625 191.917969 205.261719 190.878906 210.296875 169.925781 C 212.589844 168.984375 215.027344 169.96875 215.648438 170.144531 C 218.597656 171.355469 218.707031 169.433594 216.671875 166.488281 C 213.675781 162.15625 209.386719 159.132812 204.046875 158.445312 Z M 171.929688 169.007812 C 174.882812 169.207031 177.886719 169.992188 180.808594 170.367188 C 185.507812 170.683594 190.210938 170.683594 194.910156 170.367188 C 197.96875 169.976562 201.027344 169.152344 204.085938 168.984375 C 200.390625 182.878906 173.261719 184.351562 171.945312 169.042969 Z M 171.929688 169.007812 " fill-opacity="1" fill-rule="nonzero"/><path fill="#3f2622" d="M 169.492188 137.179688 C 172.550781 139.863281 176.992188 135.417969 173.949219 132.722656 C 173.292969 132.125 172.589844 131.582031 171.84375 131.097656 C 171.097656 130.613281 170.316406 130.1875 169.503906 129.828125 C 168.6875 129.46875 167.851562 129.175781 166.988281 128.953125 C 166.128906 128.730469 165.253906 128.574219 164.367188 128.492188 C 163.480469 128.410156 162.59375 128.398438 161.707031 128.460938 C 160.820312 128.519531 159.941406 128.652344 159.074219 128.851562 C 158.207031 129.054688 157.363281 129.324219 156.539062 129.664062 C 155.714844 130.003906 154.925781 130.40625 154.167969 130.871094 C 150.726562 133.007812 153.890625 138.464844 157.347656 136.320312 C 157.804688 136.023438 158.285156 135.765625 158.785156 135.542969 C 159.28125 135.324219 159.796875 135.144531 160.324219 135.007812 C 160.851562 134.871094 161.390625 134.777344 161.933594 134.730469 C 162.476562 134.679688 163.019531 134.671875 163.5625 134.710938 C 164.109375 134.75 164.644531 134.832031 165.175781 134.957031 C 165.707031 135.082031 166.226562 135.25 166.730469 135.460938 C 167.234375 135.671875 167.714844 135.917969 168.179688 136.207031 C 168.644531 136.496094 169.082031 136.820312 169.492188 137.179688 Z M 169.492188 137.179688 " fill-opacity="1" fill-rule="nonzero"/><path fill="#3f2622" d="M 220.191406 130.871094 C 219.433594 130.40625 218.640625 130.003906 217.816406 129.664062 C 216.996094 129.324219 216.148438 129.054688 215.28125 128.851562 C 214.417969 128.652344 213.539062 128.519531 212.652344 128.460938 C 211.761719 128.398438 210.875 128.410156 209.988281 128.492188 C 209.105469 128.574219 208.230469 128.730469 207.367188 128.953125 C 206.507812 129.175781 205.667969 129.46875 204.855469 129.828125 C 204.039062 130.1875 203.261719 130.613281 202.515625 131.097656 C 201.769531 131.582031 201.066406 132.125 200.40625 132.722656 C 197.347656 135.417969 201.835938 139.863281 204.867188 137.179688 C 205.277344 136.820312 205.714844 136.496094 206.175781 136.207031 C 206.640625 135.917969 207.125 135.671875 207.628906 135.460938 C 208.132812 135.25 208.648438 135.082031 209.179688 134.957031 C 209.710938 134.832031 210.25 134.75 210.792969 134.710938 C 211.339844 134.671875 211.882812 134.679688 212.425781 134.730469 C 212.96875 134.777344 213.503906 134.871094 214.03125 135.007812 C 214.5625 135.144531 215.074219 135.324219 215.574219 135.542969 C 216.074219 135.765625 216.550781 136.023438 217.007812 136.320312 C 220.464844 138.433594 223.632812 133.007812 220.191406 130.871094 Z M 220.191406 130.871094 " fill-opacity="1" fill-rule="nonzero"/></svg>